<?xml version="1.0" encoding="UTF-8" standalone="no"?>
<svg width="110px" height="110px" viewBox="0 0 110 110" version="1.1" xmlns="http://www.w3.org/2000/svg" xmlns:xlink="http://www.w3.org/1999/xlink">
    <!-- Generator: Sketch 40.1 (33804) - http://www.bohemiancoding.com/sketch -->
    <title>DNA stamp</title>
    <desc>Created with Sketch.</desc>
    <defs>
        <ellipse id="path-1" cx="50" cy="50" rx="50" ry="50"></ellipse>
        <filter x="-50%" y="-50%" width="200%" height="200%" filterUnits="objectBoundingBox" id="filter-2">
            <feMorphology radius="1" operator="dilate" in="SourceAlpha" result="shadowSpreadOuter1"></feMorphology>
            <feOffset dx="2" dy="3" in="shadowSpreadOuter1" result="shadowOffsetOuter1"></feOffset>
            <feGaussianBlur stdDeviation="2" in="shadowOffsetOuter1" result="shadowBlurOuter1"></feGaussianBlur>
            <feComposite in="shadowBlurOuter1" in2="SourceAlpha" operator="out" result="shadowBlurOuter1"></feComposite>
            <feColorMatrix values="0 0 0 0 0   0 0 0 0 0   0 0 0 0 0  0 0 0 0.5 0" type="matrix" in="shadowBlurOuter1"></feColorMatrix>
        </filter>
    </defs>
    <g id="Welcome" stroke="none" stroke-width="1" fill="none" fill-rule="evenodd">
        <g id="Desktop-HD" transform="translate(-248.000000, -1019.000000)">
            <g id="About-me" transform="translate(250.000000, 769.000000)">
                <g id="Group-2" transform="translate(1.000000, 252.000000)">
                    <g id="DNA-stamp">
                        <g id="Oval">
                            <use fill="black" fill-opacity="1" filter="url(#filter-2)" xlink:href="#path-1"></use>
                            <use stroke="#CCCCCC" stroke-width="2" fill="#FFFFFF" fill-rule="evenodd" xlink:href="#path-1"></use>
                        </g>
                        <g id="DNA-icon" transform="translate(27.000000, 18.000000)" stroke-linecap="square" stroke="#CCCCCC">
                            <g id="DNA" transform="translate(22.500000, 32.500000) rotate(24.000000) translate(-22.500000, -32.500000) translate(12.000000, 2.000000)" stroke-width="3">
                                <g id="DNA-strand" transform="translate(-0.000000, 0.000000)">
                                    <path d="M-4.33393652,22.8037789 C-1.83393652,27.3037789 1.73378815,26.0594043 4.16606348,24.8037789 C16.5334829,18.4192856 19.0600317,5.16606348 25.3037789,5.16606348" id="Line" transform="translate(10.484921, 15.568858) rotate(90.000000) translate(-10.484921, -15.568858) "></path>
                                    <path d="M-4.33393652,52.6660635 C-1.83393652,57.1660635 1.73378815,55.9216888 4.16606348,54.6660635 C16.5334829,48.2815701 19.0600317,35.028348 25.3037789,35.028348" id="Line" transform="translate(10.484921, 45.431142) scale(1, -1) rotate(90.000000) translate(-10.484921, -45.431142) "></path>
                                </g>
                                <g id="DNA-strand" transform="translate(10.500000, 30.500000) scale(-1, 1) translate(-10.500000, -30.500000) translate(-0.000000, 0.000000)">
                                    <path d="M-4.33393652,22.8037789 C-1.83393652,27.3037789 1.73378815,26.0594043 4.16606348,24.8037789 C16.5334829,18.4192856 19.0600317,5.16606348 25.3037789,5.16606348" id="Line" transform="translate(10.484921, 15.568858) rotate(90.000000) translate(-10.484921, -15.568858) "></path>
                                    <path d="M-4.33393652,52.6660635 C-1.83393652,57.1660635 1.73378815,55.9216888 4.16606348,54.6660635 C16.5334829,48.2815701 19.0600317,35.028348 25.3037789,35.028348" id="Line" transform="translate(10.484921, 45.431142) scale(1, -1) rotate(90.000000) translate(-10.484921, -45.431142) "></path>
                                </g>
                            </g>
                            <path d="M24.5,5.5 L40.5,13.5" id="Line"></path>
                            <path d="M22.5,10.5 L38.5,18.5" id="Line"></path>
                            <path d="M16.5,25.5 L32.5,33.5" id="Line"></path>
                            <path d="M13.5,30.5 L29.5,38.5" id="Line"></path>
                            <path d="M6.5,46.5 L22.5,54.5" id="Line"></path>
                            <path d="M4.5,51.5 L20.5,59.5" id="Line"></path>
                        </g>
                    </g>
                </g>
            </g>
        </g>
    </g>
</svg>