<?xml version="1.0" encoding="UTF-8" standalone="no"?>
<svg width="25px" height="34px" viewBox="0 0 25 34" version="1.1" xmlns="http://www.w3.org/2000/svg" xmlns:xlink="http://www.w3.org/1999/xlink">
    <!-- Generator: Sketch 40.1 (33804) - http://www.bohemiancoding.com/sketch -->
    <title>Download icon</title>
    <desc>Created with Sketch.</desc>
    <defs></defs>
    <g id="Welcome" stroke="none" stroke-width="1" fill="none" fill-rule="evenodd">
        <g id="Desktop-HD-2" transform="translate(-200.000000, -457.000000)">
            <g id="Landing">
                <g id="Background">
                    <g id="Group-9">
                        <g id="Download-icon" transform="translate(200.000000, 457.000000)">
                            <path d="M23.9361702,11.0580461 L23.9361702,30.1062183 C23.9361702,31.8885047 22.5105362,33.3333333 20.7452595,33.3333333 L3.19091075,33.3333333 C1.4286194,33.3333333 0,31.8846037 0,30.1075063 L0,4.30109586 L0,4.30109586 C0,2.51952078 1.432818,1.07526882 3.192744,1.07526882 L15.2301762,1.07526882" id="Rectangle-6" fill="#FFFFFF"></path>
                            <path d="M24.7340426,10.2150538 L16.8558321,10.2150538 C15.7721306,10.2150538 14.893617,9.42938651 14.893617,8.46382502 L14.893617,0.268817204" id="Rectangle-7" stroke="#DD1402" stroke-width="2" fill="#FFFFFF"></path>
                            <g id="arrow" transform="translate(6.978723, 16.129032)" stroke="#DD1402" stroke-width="2">
                                <path d="M5,0.268817204 L5,9.94623656" id="Line" stroke-linecap="square"></path>
                                <polyline id="Triangle" transform="translate(5.000000, 9.677419) rotate(180.000000) translate(-5.000000, -9.677419) " points="2.30926389e-13 11.827957 5 7.52688172 10 11.827957"></polyline>
                            </g>
                        </g>
                    </g>
                </g>
            </g>
        </g>
    </g>
</svg>