<?xml version="1.0" encoding="UTF-8" standalone="no"?>
<svg width="156px" height="88px" viewBox="0 0 156 88" version="1.1" xmlns="http://www.w3.org/2000/svg" xmlns:xlink="http://www.w3.org/1999/xlink">
    <!-- Generator: Sketch 40.1 (33804) - http://www.bohemiancoding.com/sketch -->
    <title>Responsive log</title>
    <desc>Created with Sketch.</desc>
    <defs>
        <rect id="path-1" x="13" y="0" width="120" height="75" rx="4"></rect>
        <mask id="mask-2" maskContentUnits="userSpaceOnUse" maskUnits="objectBoundingBox" x="0" y="0" width="120" height="75" fill="white">
            <use xlink:href="#path-1"></use>
        </mask>
        <rect id="path-3" x="0" y="0" width="54" height="69" rx="6"></rect>
        <mask id="mask-4" maskContentUnits="userSpaceOnUse" maskUnits="objectBoundingBox" x="0" y="0" width="54" height="69" fill="white">
            <use xlink:href="#path-3"></use>
        </mask>
        <rect id="path-5" x="0" y="0" width="24" height="47" rx="5"></rect>
        <mask id="mask-6" maskContentUnits="userSpaceOnUse" maskUnits="objectBoundingBox" x="0" y="0" width="24" height="47" fill="white">
            <use xlink:href="#path-5"></use>
        </mask>
    </defs>
    <g id="Welcome" stroke="none" stroke-width="1" fill="none" fill-rule="evenodd">
        <g id="Desktop-HD" transform="translate(-1001.000000, -3061.000000)">
            <g id="Project-Examples" transform="translate(0.000000, 2666.000000)">
                <g id="Responsive" transform="translate(969.000000, 354.000000)">
                    <g id="Responsive-log" transform="translate(32.000000, 41.000000)">
                        <g id="Laptop" transform="translate(11.000000, 0.000000)">
                            <use id="Rectangle-27" stroke="#CC1100" mask="url(#mask-2)" stroke-width="16" xlink:href="#path-1"></use>
                            <path d="M1,78 L144,78 C144,78 145.39695,85 142.160419,85 L2.0026642,85 C-0.410970007,85 1,78 1,78 Z" id="Rectangle-28" fill="#CC1100"></path>
                            <polygon id="Polygon-7" fill="#FFFFFF" transform="translate(72.750000, 78.000000) rotate(90.000000) translate(-72.750000, -78.000000) " points="72.75 61.25 75.25 69.625 75.25 86.375 72.75 94.75 70.25 86.375 70.25 69.625"></polygon>
                        </g>
                        <g id="Ipad" transform="translate(4.000000, 19.000000)">
                            <use id="Rectangle-29" stroke="#FFFFFF" mask="url(#mask-4)" stroke-width="6" fill="#CC1100" xlink:href="#path-3"></use>
                            <rect id="Rectangle-30" fill="#FFFFFF" x="9.19148936" y="9.2" width="35.6170213" height="48.3"></rect>
                            <ellipse id="Oval-14" fill="#FFFFFF" cx="27" cy="61.525" rx="2.29787234" ry="2.3"></ellipse>
                        </g>
                        <g id="Iphone" transform="translate(0.000000, 40.000000)">
                            <use id="Rectangle-31" stroke="#FFFFFF" mask="url(#mask-6)" stroke-width="4" fill="#CC1100" xlink:href="#path-5"></use>
                            <rect id="Rectangle-32" fill="#FFFFFF" x="4.8" y="7.23076923" width="14.4" height="31.3333333"></rect>
                            <ellipse id="Oval-14" fill="#FFFFFF" cx="12" cy="41.5769231" rx="1.8" ry="1.80769231"></ellipse>
                        </g>
                    </g>
                </g>
            </g>
        </g>
    </g>
</svg>