<?xml version="1.0" encoding="UTF-8" standalone="no"?>
<svg width="111px" height="133px" viewBox="0 0 111 133" version="1.1" xmlns="http://www.w3.org/2000/svg" xmlns:xlink="http://www.w3.org/1999/xlink">
    <!-- Generator: Sketch 40.1 (33804) - http://www.bohemiancoding.com/sketch -->
    <title>Sass</title>
    <desc>Created with Sketch.</desc>
    <defs></defs>
    <g id="Welcome" stroke="none" stroke-width="1" fill="none" fill-rule="evenodd">
        <g id="Desktop-HD" transform="translate(-537.000000, -3069.000000)">
            <g id="Project-Examples" transform="translate(0.000000, 2666.000000)">
                <g id="Sass" transform="translate(489.000000, 354.000000)">
                    <g transform="translate(33.000000, 35.000000)">
                        <text id="ass" font-family="Lato-Light, Lato" font-size="24" font-weight="300" fill="#404040">
                            <tspan x="77" y="122">ass</tspan>
                        </text>
                        <g id="Sass-icon" transform="translate(72.500000, 75.000000) rotate(-7.000000) translate(-72.500000, -75.000000) translate(8.000000, 8.000000)">
                            <path d="M50.058606,112.46393 C54.828144,110.540044 57.8358309,107.726708 57.8358309,104.592673 C57.8358309,98.7936831 47.5383801,94.092673 34.8358309,94.092673 C24.2147409,94.092673 19.5674146,96.9381008 17.2041473,97.7539924" id="Oval-13" stroke="#CC1100" stroke-width="5" stroke-linecap="round" transform="translate(37.519989, 103.278301) rotate(-17.000000) translate(-37.519989, -103.278301) "></path>
                            <path d="M48.0091844,108.253788 C52.7787224,106.329902 55.141911,103.099954 54.4580479,100.661517 C53.7468594,98.1256453 50.0976363,96.8522489 47.3021796,95.997592" id="Oval-13" stroke="#FFFFFF" stroke-width="3" stroke-linecap="round" transform="translate(50.938131, 102.125690) rotate(-17.000000) translate(-50.938131, -102.125690) "></path>
                            <path d="M11.3616047,103.997662 C9.9593129,106.905296 9.1038958,110.776399 9.1038958,115.026179 C9.1038958,124.056564 12.9662981,131.377137 17.7308127,131.377137 C22.4953273,131.377137 26.3577296,124.056564 26.3577296,115.026179 C26.3577296,109.614635 24.9706946,104.817105 22.8336828,101.841031" id="Oval-12" stroke="#CC1100" stroke-width="5" transform="translate(17.730813, 116.609084) rotate(29.000000) translate(-17.730813, -116.609084) "></path>
                            <path d="M9.21610994,71.6054231 C8.15478873,69.2962454 8.01482195,79.9455651 12.3442639,84.6081642 C16.6737058,89.2707633 21.2109054,92.5386724 23.1894918,94.2376887 C29.4344391,99.6002383 29.4344391,104.365358 29.4344391,107.953448" id="Line" stroke="#CC1100" stroke-width="5" stroke-linecap="round"></path>
                            <path d="M12.2174492,63.3235294 C11.1561279,61.0143517 8.04017039,72.9124244 12.2174492,78.7907269 C16.3947279,84.6690295 20.4688646,87.455644 22.2460803,89.9226623 C27.2146074,96.8196571 28.9300467,99.568204 28.9300467,101.75615" id="Line" stroke="#CC1100" stroke-width="4" stroke-linecap="round"></path>
                            <path d="M15.6742342,62.2081476 C13.2300135,65.9593695 12.2049145,70.2727943 13.9395743,76.5619373 C15.6742342,82.8510803 17.0917096,84.3550929 21.2001589,88.6989503" id="Line" stroke="#CC1100" stroke-width="4" stroke-linecap="round"></path>
                            <path d="M42.4889205,63.2425709 C44.7646071,70.0970413 55.0074088,74.444372 64.4736932,74.444372 C97.3559887,74.444372 124.012356,63.4119905 124.012356,49.8028582 C124.012356,36.1937258 97.3559887,25.1613443 64.4736932,25.1613443 C31.5913976,25.1613443 4.93503017,36.1937258 4.93503017,49.8028582" id="Oval-11" stroke="#CC1100" stroke-width="8" stroke-linecap="round" transform="translate(64.473693, 49.802858) rotate(-27.000000) translate(-64.473693, -49.802858) "></path>
                            <path d="M49.0425346,55.6252379 C51.3182212,62.4797083 59.5271876,65.7907483 68.993472,65.7907483 C73.885498,65.7907483 81.626685,66.6221491 101.066964,60.2339411" id="Oval-11" stroke="#FFFFFF" stroke-width="5" stroke-linecap="round" transform="translate(75.054749, 60.725725) rotate(-27.000000) translate(-75.054749, -60.725725) "></path>
                            <path d="M116.994813,57.7614409 C120.505879,50.8705849 116.445023,44.0642616 110.454221,40.2198708 C99.8563316,33.4190401 81.3901543,28.9162284 60.3828954,28.9162284 C38.5421491,28.9162284 17.5432955,33.1603536 7.18278046,40.4169949" id="Oval-11" stroke="#CC1100" stroke-width="7" stroke-linecap="round" transform="translate(62.740025, 43.338835) rotate(-27.000000) translate(-62.740025, -43.338835) "></path>
                        </g>
                    </g>
                </g>
            </g>
        </g>
    </g>
</svg>