<?xml version="1.0" encoding="UTF-8" standalone="no"?>
<svg width="115px" height="102px" viewBox="0 0 115 102" version="1.1" xmlns="http://www.w3.org/2000/svg" xmlns:xlink="http://www.w3.org/1999/xlink">
    <!-- Generator: Sketch 40.1 (33804) - http://www.bohemiancoding.com/sketch -->
    <title>Sketch icon</title>
    <desc>Created with Sketch.</desc>
    <defs>
        <linearGradient x1="50%" y1="50%" x2="50%" y2="100%" id="linearGradient-1">
            <stop stop-color="#F1C6C2" offset="0%"></stop>
            <stop stop-color="#D02516" offset="100%"></stop>
        </linearGradient>
        <linearGradient x1="50%" y1="79.6720221%" x2="50%" y2="0%" id="linearGradient-2">
            <stop stop-color="#FFFFFF" offset="0%"></stop>
            <stop stop-color="#EFB7B2" offset="100%"></stop>
        </linearGradient>
        <linearGradient x1="29.3148613%" y1="75.7325924%" x2="100%" y2="3.6127588%" id="linearGradient-3">
            <stop stop-color="#DF6F64" offset="0%"></stop>
            <stop stop-color="#CF2111" offset="100%"></stop>
        </linearGradient>
        <linearGradient x1="50%" y1="32.8405516%" x2="74.3843589%" y2="75.9511256%" id="linearGradient-4">
            <stop stop-color="#F6DAD7" offset="0%"></stop>
            <stop stop-color="#DD6358" offset="100%"></stop>
        </linearGradient>
        <linearGradient x1="37.7710548%" y1="70.13578%" x2="100%" y2="4.19702791%" id="linearGradient-5">
            <stop stop-color="#DF6F64" offset="0%"></stop>
            <stop stop-color="#CF2111" offset="100%"></stop>
        </linearGradient>
        <linearGradient x1="50%" y1="35.0373364%" x2="73.2764167%" y2="71.0617016%" id="linearGradient-6">
            <stop stop-color="#F6DAD7" offset="0%"></stop>
            <stop stop-color="#DD6358" offset="100%"></stop>
        </linearGradient>
        <linearGradient x1="0%" y1="50%" x2="100%" y2="50%" id="linearGradient-7">
            <stop stop-color="#FEFEFE" offset="0%"></stop>
            <stop stop-color="#CC1100" offset="100%"></stop>
        </linearGradient>
        <linearGradient x1="50%" y1="50%" x2="50%" y2="100%" id="linearGradient-8">
            <stop stop-color="#F0BCB7" offset="0%"></stop>
            <stop stop-color="#CD1504" offset="100%"></stop>
        </linearGradient>
        <linearGradient x1="70.9059147%" y1="50%" x2="14.0215125%" y2="23.5932412%" id="linearGradient-9">
            <stop stop-color="#F2C6C2" offset="0%"></stop>
            <stop stop-color="#DC5C50" offset="100%"></stop>
        </linearGradient>
        <linearGradient x1="50%" y1="50%" x2="9.06314627%" y2="50%" id="linearGradient-10">
            <stop stop-color="#F7DFDD" offset="0%"></stop>
            <stop stop-color="#E4837A" offset="100%"></stop>
        </linearGradient>
        <linearGradient x1="100%" y1="0%" x2="15.0772447%" y2="78.4607978%" id="linearGradient-11">
            <stop stop-color="#FFFFFF" offset="0%"></stop>
            <stop stop-color="#F2C9C5" offset="100%"></stop>
        </linearGradient>
        <linearGradient x1="58.5843482%" y1="50%" x2="28.4328107%" y2="68.2066994%" id="linearGradient-12">
            <stop stop-color="#EA9F98" offset="0%"></stop>
            <stop stop-color="#D84E42" offset="100%"></stop>
        </linearGradient>
        <linearGradient x1="59.4340382%" y1="50%" x2="4.1070377%" y2="50%" id="linearGradient-13">
            <stop stop-color="#F1C0BC" offset="0%"></stop>
            <stop stop-color="#E07369" offset="100%"></stop>
        </linearGradient>
        <linearGradient x1="50%" y1="39.301181%" x2="50%" y2="100%" id="linearGradient-14">
            <stop stop-color="#F7E0DE" offset="0%"></stop>
            <stop stop-color="#DF6E64" offset="100%"></stop>
        </linearGradient>
        <linearGradient x1="50%" y1="45.1540364%" x2="50%" y2="0%" id="linearGradient-15">
            <stop stop-color="#E08881" offset="0%"></stop>
            <stop stop-color="#CF2111" offset="100%"></stop>
        </linearGradient>
        <linearGradient x1="65.3704122%" y1="34.2398407%" x2="26.3055641%" y2="64.5197861%" id="linearGradient-16">
            <stop stop-color="#D64134" offset="0%"></stop>
            <stop stop-color="#CD1707" offset="100%"></stop>
        </linearGradient>
    </defs>
    <g id="Welcome" stroke="none" stroke-width="1" fill="none" fill-rule="evenodd">
        <g id="Desktop-HD" transform="translate(-303.000000, -3046.000000)">
            <g id="Project-Examples" transform="translate(0.000000, 2666.000000)">
                <g id="Graphic-design" transform="translate(249.000000, 354.000000)">
                    <g id="Sketch-icon" transform="translate(53.000000, 26.000000)">
                        <g id="Diamond" transform="translate(1.000000, 0.000000)">
                            <polygon id="Triangle-4" fill="url(#linearGradient-1)" transform="translate(57.500000, 71.078490) rotate(180.000000) translate(-57.500000, -71.078490) " points="57.5 40.1106829 95.6377551 102.046296 19.3622449 102.046296"></polygon>
                            <polygon id="Rectangle-18" fill="url(#linearGradient-2)" points="38.3921784 16.2720903 76.3266645 16.3537186 94.9946038 40.5311148 19.9904381 40.2943927"></polygon>
                            <g id="side" transform="translate(57.500000, 7.668219)">
                                <polygon id="Triangle-5" fill="url(#linearGradient-3)" transform="translate(28.542503, 55.477227) rotate(180.000000) translate(-28.542503, -55.477227) " points="56.8711101 16.9768004 20.0404379 77.9498316 0.213895989 93.9776537"></polygon>
                                <polygon id="Rectangle-19" fill="url(#linearGradient-4)" points="18.4653787 8.25808178 37.0001006 0.370761078 56.9241092 16.9434156 37.3276081 32.875742"></polygon>
                            </g>
                            <g id="side" transform="translate(29.086735, 55.168219) scale(-1, 1) translate(-29.086735, -55.168219) translate(0.086735, 7.668219)">
                                <polygon id="Triangle-5" fill="url(#linearGradient-5)" transform="translate(29.023798, 55.499137) rotate(180.000000) translate(-29.023798, -55.499137) " points="57.4981439 16.9525433 19.7938255 78.2312266 0.549451943 94.0457297"></polygon>
                                <polygon id="Rectangle-19" fill="url(#linearGradient-6)" points="19.639555 8.69474169 37.5656578 0.232636429 57.5027974 16.8287781 38.3005247 32.7263673"></polygon>
                            </g>
                            <polygon id="Polygon" fill="url(#linearGradient-7)" transform="translate(57.532685, 8.179713) rotate(90.000000) translate(-57.532685, -8.179713) " points="57.3793102 -28.8410918 65.669018 -10.9577469 65.669018 27.3833471 57.282013 45.2005187 49.396352 27.3833471 49.396352 -10.9577469"></polygon>
                        </g>
                        <polygon id="Triangle-6" fill="url(#linearGradient-8)" points="57.9433661 7 77.6381564 16.3792479 39.4650259 16.3732232"></polygon>
                        <g id="Side-triangle" transform="translate(77.000000, 8.000000)">
                            <polygon id="Triangle-8" fill-opacity="0.8" fill="url(#linearGradient-9)" points="38.2918698 16.6290447 18.8401172 32.545307 0.398530811 8.40457591"></polygon>
                            <polygon id="Triangle-7" fill-opacity="0.5" fill="url(#linearGradient-10)" points="18.5070412 0.129718743 38.4262298 16.5668859 18.9199879 32.4464232"></polygon>
                            <polygon id="Triangle-9" fill-opacity="0.9" fill="#FFFFFF" points="18.508111 0.0677797591 1.3122221 9.6802135 0.40142708 8.4248565"></polygon>
                            <polygon id="Rectangle-20" fill="url(#linearGradient-11)" opacity="0.8" points="16.6218559 29.6770132 37.0450038 15.4752316 38.4032864 16.5999327 18.8063672 32.5581593"></polygon>
                        </g>
                        <g id="Side-triangle" transform="translate(20.299988, 24.399902) scale(-1, 1) translate(-20.299988, -24.399902) translate(0.799988, 7.899902)">
                            <polygon id="Triangle-8" fill-opacity="0.8" fill="url(#linearGradient-9)" points="38.2918698 16.6290447 18.8401172 32.545307 0.408327843 8.54511009"></polygon>
                            <polygon id="Triangle-7" fill-opacity="0.5" fill="url(#linearGradient-10)" points="18.2681127 0.060199451 38.1767447 16.5721996 18.9199879 32.4464232"></polygon>
                            <polygon id="Triangle-9" fill-opacity="0.9" fill="#FFFFFF" points="18.2356539 0.0288818179 1.3122221 9.6802135 0.40142708 8.4248565"></polygon>
                            <polygon id="Rectangle-20" fill="url(#linearGradient-11)" opacity="0.8" points="16.6218559 29.6770132 36.8109409 15.4443845 38.2152895 16.6418085 18.8475523 32.5635917"></polygon>
                        </g>
                        <g id="Pentagon-triangles" transform="translate(20.000000, 16.000000)">
                            <polygon id="Triangle-10" fill="#FFFFFF" transform="translate(38.405878, 4.930634) rotate(180.000000) translate(-38.405878, -4.930634) " points="38.9195324 0.341410072 58.3194555 8.30531187 57.3966184 9.51985766 19.4055199 9.47531039 18.4923009 8.18521143"></polygon>
                            <polygon id="Triangle-11" fill="url(#linearGradient-12)" points="37.9090599 9.61567073 75.6469149 24.5638334 0.948878876 24.4180584"></polygon>
                            <polygon id="Rectangle-21" fill="url(#linearGradient-13)" points="5.69214375 22.5050297 70.3893149 22.4866918 75.8358971 24.5774372 0.92276211 24.4041846"></polygon>
                        </g>
                        <g id="Front-triangles" transform="translate(20.000000, 40.000000)">
                            <polygon id="Triangle-12" fill="url(#linearGradient-14)" transform="translate(38.070193, 31.251538) rotate(180.000000) translate(-38.070193, -31.251538) " points="37.6212703 0.469330159 51.0868937 62.0337464 25.0534922 61.9923944"></polygon>
                            <polygon id="Rectangle-22" fill-opacity="0.8" fill="#F1C0BC" points="0.786447031 0.410115016 75.7089212 0.395983081 72.9158451 5.03832385 3.62696604 5.02393955"></polygon>
                            <path d="M5.67288014,5.0007576 L70.539386,5.06398175 L50.3993404,39 L65.2826539,9.72516887 C65.2826539,9.72516887 47.180125,7.26104128 38.1288335,7.26712606 C29.2044625,7.27312552 11.3556664,9.76142157 11.3556664,9.76142157 L26.8086287,39 L5.67288014,5.0007576 Z" id="Rectangle-23" fill-opacity="0.7" fill="url(#linearGradient-15)"></path>
                        </g>
                        <polygon id="Rectangle-24" fill="url(#linearGradient-16)" points="93.7033235 43.6796054 111.034089 29.419715 103.542444 39 89.1834549 51.3866723"></polygon>
                        <polygon id="Rectangle-24" fill="url(#linearGradient-16)" transform="translate(16.456719, 39.837862) scale(-1, 1) translate(-16.456719, -39.837862) " points="10.1623641 43.6688951 27.4197785 28.6757242 19.4324085 39 5.49365894 51"></polygon>
                    </g>
                </g>
            </g>
        </g>
    </g>
</svg>